<?xml version="1.0" standalone="yes"?>
<svg xmlns="http://www.w3.org/2000/svg" width="90" height="78">
<path style="fill:#ffffff; stroke:none;" d="M0 0L0 78L90 78L90 0L0 0z"/>
<path style="fill:#99d9eb; stroke:none;" d="M52 54C56.9412 54 68.402 56.136 72.3966 52.9722C75.5155 50.502 75.5155 31.498 72.3966 29.0278C68.402 25.864 56.9412 28 52 28C51.998 10.0948 41.4319 23.5647 34 31C31.5763 33.4248 26.2068 37.1883 26.2068 41C26.2068 44.8117 31.5763 48.5752 34 51C41.4319 58.4352 51.998 71.9052 52 54z"/>
<path style="fill:#fff301; stroke:none;" d="M46 26C42.6179 29.3821 33.2068 35.8599 33.2068 41C33.2068 46.2906 43.0824 53.2404 47 56C47.7819 45.7506 61.3876 49 69 49L69 33C59.3955 33 50.4866 35.5862 46 26z"/>
</svg>
