<?xml version="1.0" standalone="yes"?>
<svg xmlns="http://www.w3.org/2000/svg" width="90" height="78">
<path style="fill:#ffffff; stroke:none;" d="M0 0L0 78L90 78L90 0L0 0z"/>
<path style="fill:#99d9eb; stroke:none;" d="M38 28C33.0588 28 21.598 25.864 17.6034 29.0278C14.4845 31.498 14.4845 50.502 17.6034 52.9722C21.598 56.136 33.0588 54 38 54C38.002 71.9052 48.5681 58.4353 56 51C58.4237 48.5752 63.7932 44.8117 63.7932 41C63.7932 37.1883 58.4237 33.4248 56 31C48.5681 23.5647 38.002 10.0948 38 28z"/>
<path style="fill:#fff301; stroke:none;" d="M43 26C42.2181 36.2494 28.6124 33 21 33L21 49C28.6124 49 42.2181 45.7506 43 56C46.9176 53.2404 56.7932 46.2906 56.7932 41C56.7932 35.7094 46.9176 28.7596 43 26z"/>
</svg>
