<?xml version="1.0" standalone="yes"?>
<svg xmlns="http://www.w3.org/2000/svg" width="78" height="90">
<path style="fill:#ffffff; stroke:none;" d="M0 0L0 90L78 90L78 0L0 0z"/>
<path style="fill:#99d9eb; stroke:none;" d="M28 52C28 56.9412 25.864 68.402 29.0278 72.3966C31.498 75.5155 50.502 75.5155 52.9722 72.3966C56.136 68.402 54 56.9412 54 52C71.9052 51.998 58.4353 41.4319 51 34C48.5752 31.5763 44.8117 26.2068 41 26.2068C37.1883 26.2068 33.4248 31.5763 31 34C23.5647 41.4319 10.0948 51.998 28 52z"/>
<path style="fill:#fff301; stroke:none;" d="M26 47C36.2494 47.7819 33 61.3876 33 69L49 69C49 61.3876 45.7506 47.7819 56 47C53.2404 43.0824 46.2906 33.2068 41 33.2068C35.7094 33.2068 28.7596 43.0824 26 47z"/>
</svg>
